<?xml version="1.0" standalone="no"?>
<!DOCTYPE svg PUBLIC "-//W3C//DTD SVG 20010904//EN"
 "http://www.w3.org/TR/2001/REC-SVG-20010904/DTD/svg10.dtd">
<svg version="1.0" xmlns="http://www.w3.org/2000/svg"
 width="2048.000000pt" height="2048.000000pt" viewBox="0 0 2048.000000 2048.000000"
 preserveAspectRatio="xMidYMid meet">

<g transform="translate(0.000000,2048.000000) scale(0.100000,-0.100000)"
fill="#000000" stroke="none">
<path d="M0 10240 l0 -10240 10240 0 10240 0 0 23 c-1 20 -2 20 -11 5 -9 -17
-507 -18 -10229 -18 l-10220 0 -1 48 c0 26 -1 4627 -2 10225 -2 7005 1 10177
8 10177 229 4 20430 -2 20434 -6 3 -3 8 -252 11 -552 l5 -547 3 563 2 562
-10240 0 -10240 0 0 -10240z"/>
<path d="M20472 18585 c0 -16 2 -22 5 -12 2 9 2 23 0 30 -3 6 -5 -1 -5 -18z"/>
<path d="M20473 18135 c0 -33 2 -45 4 -27 2 18 2 45 0 60 -2 15 -4 0 -4 -33z"/>
<path d="M20474 16880 c0 -124 2 -174 3 -112 2 61 2 163 0 225 -1 61 -3 11 -3
-113z"/>
<path d="M20474 15015 c0 -60 1 -84 3 -52 2 32 2 81 0 110 -2 29 -3 3 -3 -58z"/>
<path d="M20474 14400 c0 -179 2 -252 3 -162 2 89 2 235 0 325 -1 89 -3 16 -3
-163z"/>
<path d="M8667 14483 c-4 -3 -7 -240 -7 -525 l0 -518 -525 0 -525 0 0 -2745 1
-2745 22 -5 c12 -3 1143 -4 2512 -3 l2490 3 3 227 c2 227 2 228 25 232 12 2
47 8 77 14 68 12 173 60 254 114 69 47 196 167 196 185 0 6 4 13 8 15 32 13
118 189 148 303 23 88 24 313 1 390 -8 28 -20 71 -28 97 l-13 48 119 113 c66
63 137 128 157 146 60 52 59 66 -15 144 -18 18 -21 16 -119 -80 -55 -54 -121
-119 -146 -145 -25 -27 -51 -48 -57 -48 -7 0 -29 21 -51 48 -87 106 -165 170
-269 222 -97 47 -154 67 -226 77 l-54 8 -3 1793 -2 1792 -375 0 -375 0 -2 423
-3 422 -1606 3 c-883 1 -1609 -1 -1612 -5z m3084 -140 c1 -17 1 -116 0 -495
l-1 -398 -1475 0 -1475 0 0 450 0 450 1475 0 c811 0 1475 -3 1476 -7z m763
-994 c8 -163 6 -3264 -1 -3285 -3 -7 -30 -15 -61 -19 -116 -14 -224 -53 -351
-125 -40 -23 -167 -142 -198 -185 -47 -67 -123 -234 -140 -305 -27 -119 -23
-309 10 -437 29 -117 56 -168 141 -273 147 -180 314 -281 516 -311 l80 -11 0
-159 0 -159 -2385 0 -2385 0 2 2618 3 2617 2070 5 c1139 3 2072 6 2074 8 2 1
2 37 -1 80 -3 42 -3 83 -1 90 4 9 75 12 312 12 l308 0 7 -161z m138 -3439 c90
-10 118 -19 227 -73 73 -37 226 -179 236 -220 6 -23 -13 -45 -201 -229 -115
-112 -245 -240 -290 -285 -44 -46 -86 -83 -92 -83 -6 0 -17 9 -25 20 -22 31
-296 310 -305 310 -10 0 -102 -89 -102 -98 0 -9 425 -442 434 -442 4 0 57 51
119 113 218 219 530 517 541 517 14 0 36 -139 36 -223 0 -73 -25 -195 -54
-267 -96 -233 -317 -392 -567 -407 -148 -9 -283 21 -395 88 -92 54 -215 183
-258 270 -41 83 -74 201 -83 300 -16 184 87 415 251 563 38 34 139 96 157 96
10 0 20 4 23 9 7 10 115 39 166 44 70 7 96 7 182 -3z"/>
<path d="M9340 13982 c-30 -2 -57 -7 -60 -12 -3 -4 -5 -34 -5 -67 l0 -58 975
-3 c536 -1 985 0 998 3 20 5 22 11 22 69 l0 63 -54 7 c-55 6 -1777 5 -1876 -2z"/>
<path d="M8245 12908 c-3 -18 -5 -143 -3 -278 l3 -245 277 -2 c211 -2 277 0
280 10 2 6 2 132 0 280 l-4 267 -274 0 -273 0 -6 -32z m495 -248 l0 -210 -215
0 -215 0 0 203 c0 112 3 207 7 210 3 4 100 7 215 7 l208 0 0 -210z"/>
<path d="M8515 11990 l-270 -5 0 -275 0 -275 278 -2 c206 -1 277 1 278 10 4
64 -4 543 -9 547 -4 3 -128 3 -277 0z m220 -275 l0 -210 -210 0 -210 0 -3 200
c-1 110 0 205 3 212 3 11 49 13 212 11 l208 -3 0 -210z"/>
<path d="M9031 11242 l-184 -184 -293 1 -293 2 -17 -28 c-10 -15 -27 -36 -38
-46 l-21 -17 28 -21 27 -21 0 -209 0 -209 279 0 c215 0 280 3 284 13 2 6 2 62
-1 123 -8 186 -27 154 265 440 l256 252 -39 46 c-21 25 -45 45 -54 44 -8 0
-98 -84 -199 -186z m-269 -268 c-16 -28 -183 -194 -196 -194 -7 0 -55 43 -106
96 -71 74 -90 98 -79 105 8 5 99 9 202 9 167 0 187 -2 179 -16z m-325 -259
c59 -63 114 -115 122 -115 7 0 48 34 90 75 43 41 81 75 85 75 4 0 5 -39 4 -87
l-3 -88 -212 -3 -213 -2 0 130 c0 73 4 130 9 130 5 0 58 -52 118 -115z"/>
<path d="M8245 10107 c-3 -7 -4 -134 -3 -282 l3 -270 279 0 279 0 1 270 c1
149 0 276 -2 283 -6 18 -550 18 -557 -1z m495 -272 l0 -215 -215 0 -215 0 0
215 0 215 215 0 215 0 0 -215z"/>
<path d="M8240 8880 l0 -280 279 0 279 0 4 273 c3 149 3 275 1 280 -2 4 -130
7 -284 7 l-279 0 0 -280z m463 214 l37 -6 0 -214 0 -214 -212 2 -213 3 -3 212
-2 212 42 3 c95 7 315 8 351 2z"/>
<path d="M20472 14020 c0 -19 2 -27 5 -17 2 9 2 25 0 35 -3 9 -5 1 -5 -18z"/>
<path d="M20474 13625 c0 -104 2 -146 3 -92 2 54 2 139 0 190 -1 51 -3 7 -3
-98z"/>
<path d="M20472 13280 c0 -19 2 -27 5 -17 2 9 2 25 0 35 -3 9 -5 1 -5 -18z"/>
<path d="M20473 13020 c0 -36 2 -50 4 -32 2 17 2 47 0 65 -2 17 -4 3 -4 -33z"/>
<path d="M20474 12670 c0 -91 2 -128 3 -82 2 45 2 119 0 165 -1 45 -3 8 -3
-83z"/>
<path d="M20473 12295 c0 -33 2 -45 4 -27 2 18 2 45 0 60 -2 15 -4 0 -4 -33z"/>
<path d="M20473 12120 c0 -25 2 -35 4 -22 2 12 2 32 0 45 -2 12 -4 2 -4 -23z"/>
<path d="M20474 11490 c0 -107 2 -151 3 -97 2 53 2 141 0 195 -1 53 -3 9 -3
-98z"/>
<path d="M20473 11200 c0 -47 2 -66 4 -42 2 23 2 61 0 85 -2 23 -4 4 -4 -43z"/>
<path d="M20474 10915 c0 -110 2 -156 3 -103 2 53 2 143 0 200 -1 57 -3 13 -3
-97z"/>
<path d="M20475 9280 c0 -696 1 -980 2 -632 2 347 2 917 0 1265 -1 347 -2 63
-2 -633z"/>
<path d="M20473 7940 c0 -36 2 -50 4 -32 2 17 2 47 0 65 -2 17 -4 3 -4 -33z"/>
<path d="M20474 7240 c0 -69 1 -97 3 -62 2 34 2 90 0 125 -2 34 -3 6 -3 -63z"/>
<path d="M8157 7205 c-58 -16 -107 -47 -165 -106 -139 -138 -137 -406 2 -544
128 -126 310 -158 469 -81 213 102 290 325 188 541 -45 96 -126 162 -233 191
-65 17 -197 17 -261 -1z m228 -134 c58 -27 98 -68 130 -134 24 -50 27 -66 23
-125 -3 -37 -13 -83 -23 -102 -21 -43 -103 -120 -126 -120 -10 0 -21 -4 -24
-10 -10 -16 -143 -12 -180 6 -43 20 -99 77 -121 123 -10 20 -20 67 -22 106 -3
59 0 79 21 125 30 66 80 116 133 135 56 20 141 18 189 -4z"/>
<path d="M10340 7206 c-59 -15 -105 -44 -157 -98 -119 -122 -146 -307 -69
-462 43 -88 84 -126 185 -175 71 -33 82 -36 166 -35 179 1 305 76 377 222 31
62 33 73 33 172 0 94 -3 111 -28 163 -50 104 -137 181 -237 211 -64 19 -204
20 -270 2z m222 -132 c164 -55 223 -296 104 -426 -57 -64 -187 -96 -271 -68
-82 27 -153 119 -170 218 -19 112 62 252 163 282 45 14 126 11 174 -6z"/>
<path d="M12622 7205 c-58 -18 -108 -58 -134 -108 -30 -56 -32 -169 -4 -210
31 -45 103 -86 200 -113 50 -14 115 -32 143 -40 69 -19 89 -46 71 -99 -32 -94
-179 -102 -345 -18 -29 15 -54 25 -55 22 -11 -15 -47 -113 -43 -118 2 -4 25
-17 52 -29 26 -13 55 -27 63 -31 31 -17 165 -33 221 -27 168 17 259 101 259
240 0 109 -96 184 -288 227 -87 19 -107 27 -128 52 -31 37 -30 65 4 106 26 32
33 34 102 39 68 4 82 1 153 -28 42 -18 79 -31 81 -29 2 2 15 26 30 54 l26 49
-28 23 c-58 47 -280 70 -380 38z"/>
<path d="M7174 7196 c-3 -7 -4 -35 -2 -62 l3 -49 116 -3 c111 -2 117 -4 123
-25 3 -12 6 -154 6 -315 l0 -293 73 3 72 3 2 302 c1 167 4 307 8 313 4 6 51
10 110 10 118 0 120 2 113 86 l-3 39 -308 3 c-255 2 -308 0 -313 -12z"/>
<path d="M9210 6827 l0 -384 188 2 c220 3 244 6 339 51 58 28 81 45 112 87 55
74 72 111 82 184 25 176 -52 323 -209 400 l-76 38 -218 3 -218 4 0 -385z m406
232 c31 -12 69 -33 84 -48 68 -65 96 -180 65 -273 -19 -61 -33 -79 -94 -121
-41 -28 -53 -30 -164 -38 -66 -4 -126 -5 -133 -2 -11 4 -14 53 -14 247 0 134
3 246 7 249 3 4 48 7 99 7 71 0 107 -5 150 -21z"/>
<path d="M11435 7197 c-3 -6 -4 -176 -3 -377 l3 -365 273 -3 273 -2 -3 62 -3
63 -197 3 -198 2 0 315 0 315 -70 0 c-47 0 -72 -4 -75 -13z"/>
<path d="M12127 7204 c-9 -9 -9 -716 -1 -738 5 -12 21 -16 75 -16 l69 0 2 365
c0 201 1 371 2 378 1 13 -134 24 -147 11z"/>
<path d="M13138 7198 c-2 -7 -2 -37 0 -65 l4 -53 114 0 114 0 2 -312 3 -313
75 0 75 0 5 310 5 310 110 5 110 5 7 50 c4 28 6 56 3 63 -3 9 -75 12 -314 12
-238 0 -310 -3 -313 -12z"/>
<path d="M20474 6655 c0 -82 2 -115 3 -72 2 43 2 110 0 150 -1 40 -3 5 -3 -78z"/>
<path d="M20475 4460 c0 -256 1 -360 2 -233 2 128 2 338 0 465 -1 128 -2 24
-2 -232z"/>
<path d="M20474 3095 c0 -121 2 -169 3 -107 2 62 2 161 0 220 -1 59 -3 8 -3
-113z"/>
<path d="M20472 2430 c0 -19 2 -27 5 -17 2 9 2 25 0 35 -3 9 -5 1 -5 -18z"/>
<path d="M20475 1370 c0 -564 1 -794 2 -512 2 281 2 743 0 1025 -1 281 -2 51
-2 -513z"/>
</g>
</svg>
